<svg xmlns="http://www.w3.org/2000/svg" viewBox="0 0 64 64" role="img" aria-label="小金矿"><g transform="translate(17.4884 17.8081) scale(0.9070)" color="#26314A" fill="currentColor"><path d="M10 4h12q2 0 3 2l5 7q1 2-1 4L19 28q-3 3-6 0L3 17q-2-2-1-4l5-7q1-2 3-2ZM16 15h10M16 15l1 8" fill="none" stroke="currentColor" stroke-width="1.6538" stroke-linecap="round" stroke-linejoin="round"/><path d="M10 8h4q1 0 .6 1l-2 5q-.3 1-1.3 1H6q-1 0-.5-1l3-5q.5-1 1.5-1Z" fill="currentColor" fill-rule="evenodd"/></g></svg>