<svg xmlns="http://www.w3.org/2000/svg" viewBox="0 0 64 64" role="img" aria-label="小工坊"><defs><linearGradient id="v6-xiaogongfang-full-color" x1="0" y1="0" x2="1" y2="1"><stop offset="0" stop-color="#C7BAFF" stop-opacity="1"/><stop offset=".42" stop-color="#9E8CF5" stop-opacity="1"/><stop offset="1" stop-color="#E58BD4" stop-opacity="1"/></linearGradient><linearGradient id="v6-xiaogongfang-full-edge" x1="0" y1="0" x2="1" y2="1"><stop offset="0" stop-color="#fff" stop-opacity="0.95"/><stop offset=".5" stop-color="#fff" stop-opacity="0.24"/><stop offset="1" stop-color="#C7BAFF" stop-opacity="0.7"/></linearGradient><linearGradient id="v6-xiaogongfang-full-glass" x1="0" y1="0" x2="1" y2="1"><stop offset="0" stop-color="#fff" stop-opacity="0.8"/><stop offset=".55" stop-color="#fff" stop-opacity="0.18"/><stop offset="1" stop-color="#E58BD4" stop-opacity="0.14"/></linearGradient><linearGradient id="v6-xiaogongfang-full-light" x1="0" y1="0" x2=".85" y2="1"><stop offset="0" stop-color="#fff" stop-opacity="0.5"/><stop offset=".65" stop-color="#fff" stop-opacity="0.025"/></linearGradient><linearGradient id="v6-xiaogongfang-full-foot" x1="0" y1="1" x2="1" y2="0"><stop offset="0" stop-color="#E58BD4" stop-opacity="0.2"/><stop offset="1" stop-color="#C7BAFF" stop-opacity="0.03"/></linearGradient></defs><rect x="3" y="4" width="58" height="58" rx="17" fill="url(#v6-xiaogongfang-full-foot)"/><rect x="3" y="2.5" width="58" height="58" rx="17" fill="url(#v6-xiaogongfang-full-glass)" stroke="url(#v6-xiaogongfang-full-edge)" stroke-width=".65"/><rect x="9" y="9.7" width="46" height="46" rx="13" fill="#E58BD4" opacity=".32"/><rect x="9" y="9" width="46" height="46" rx="13" fill="url(#v6-xiaogongfang-full-color)"/><rect x="9.5" y="9.5" width="45" height="45" rx="12.5" fill="url(#v6-xiaogongfang-full-light)" stroke="url(#v6-xiaogongfang-full-edge)" stroke-width=".55"/><path d="M18 5.7H43" fill="none" stroke="#fff" stroke-opacity=".75" stroke-width=".7" stroke-linecap="round"/><circle cx="52" cy="12" r="2.6" fill="#fff" fill-opacity=".86" stroke="#C7BAFF" stroke-width=".5"/><g transform="translate(16.1111 17.6451) scale(0.9630)" color="#fff" fill="currentColor"><path d="M17 3C9 2 3 8 3 16s6 13 13 13c4 0 4-3 2-5-2-3 0-5 4-4 5 1 8-1 8-5 0-6-6-11-13-12Z" fill="none" stroke="currentColor" stroke-width="1.5577" stroke-linecap="round" stroke-linejoin="round"/><circle cx="10" cy="12" r="2" fill="currentColor"/><circle cx="17" cy="9" r="2" fill="currentColor"/><circle cx="24" cy="13" r="2" fill="currentColor"/></g></svg>