<svg xmlns="http://www.w3.org/2000/svg" viewBox="0 0 64 64" role="img" aria-label="信息安全中心"><defs><linearGradient id="v6-security-compact-color" x1="0" y1="0" x2="1" y2="1"><stop offset="0" stop-color="#A9EEDD" stop-opacity="1"/><stop offset=".42" stop-color="#67CBD1" stop-opacity="1"/><stop offset="1" stop-color="#6B9CEA" stop-opacity="1"/></linearGradient><linearGradient id="v6-security-compact-edge" x1="0" y1="0" x2="1" y2="1"><stop offset="0" stop-color="#fff" stop-opacity="0.95"/><stop offset=".5" stop-color="#fff" stop-opacity="0.24"/><stop offset="1" stop-color="#A9EEDD" stop-opacity="0.7"/></linearGradient><linearGradient id="v6-security-compact-glass" x1="0" y1="0" x2="1" y2="1"><stop offset="0" stop-color="#fff" stop-opacity="0.8"/><stop offset=".55" stop-color="#fff" stop-opacity="0.18"/><stop offset="1" stop-color="#6B9CEA" stop-opacity="0.14"/></linearGradient><linearGradient id="v6-security-compact-light" x1="0" y1="0" x2=".85" y2="1"><stop offset="0" stop-color="#fff" stop-opacity="0.5"/><stop offset=".65" stop-color="#fff" stop-opacity="0.025"/></linearGradient><linearGradient id="v6-security-compact-foot" x1="0" y1="1" x2="1" y2="0"><stop offset="0" stop-color="#6B9CEA" stop-opacity="0.2"/><stop offset="1" stop-color="#A9EEDD" stop-opacity="0.03"/></linearGradient></defs><rect x="5" y="5.7" width="54" height="54" rx="15" fill="#6B9CEA" opacity=".32"/><rect x="5" y="5" width="54" height="54" rx="15" fill="url(#v6-security-compact-color)"/><rect x="5.5" y="5.5" width="53" height="53" rx="14.5" fill="url(#v6-security-compact-light)" stroke="url(#v6-security-compact-edge)" stroke-width=".55"/><g transform="translate(16.0000 17.5000) scale(1.0000)" color="#fff" fill="currentColor"><path d="M6 10h20q3 0 3 3v14q0 3-3 3H6q-3 0-3-3V13q0-3 3-3ZM9 10V8a7 7 0 0 1 14 0v2" fill="none" stroke="currentColor" stroke-width="1.8500" stroke-linecap="round" stroke-linejoin="round"/><path d="M13 19a3 3 0 1 1 5 2v3q0 2-2 2t-2-2v-3q-1-1-1-2Z" fill="currentColor" fill-rule="evenodd"/></g></svg>