<svg xmlns="http://www.w3.org/2000/svg" viewBox="0 0 64 64" role="img" aria-label="小算盘"><defs><linearGradient id="v6-xiaosuanpan-compact-color" x1="0" y1="0" x2="1" y2="1"><stop offset="0" stop-color="#FFE99B" stop-opacity="1"/><stop offset=".42" stop-color="#FFB345" stop-opacity="1"/><stop offset="1" stop-color="#FF815B" stop-opacity="1"/></linearGradient><linearGradient id="v6-xiaosuanpan-compact-edge" x1="0" y1="0" x2="1" y2="1"><stop offset="0" stop-color="#fff" stop-opacity="0.95"/><stop offset=".5" stop-color="#fff" stop-opacity="0.24"/><stop offset="1" stop-color="#FFE99B" stop-opacity="0.7"/></linearGradient><linearGradient id="v6-xiaosuanpan-compact-glass" x1="0" y1="0" x2="1" y2="1"><stop offset="0" stop-color="#fff" stop-opacity="0.8"/><stop offset=".55" stop-color="#fff" stop-opacity="0.18"/><stop offset="1" stop-color="#FF815B" stop-opacity="0.14"/></linearGradient><linearGradient id="v6-xiaosuanpan-compact-light" x1="0" y1="0" x2=".85" y2="1"><stop offset="0" stop-color="#fff" stop-opacity="0.5"/><stop offset=".65" stop-color="#fff" stop-opacity="0.025"/></linearGradient><linearGradient id="v6-xiaosuanpan-compact-foot" x1="0" y1="1" x2="1" y2="0"><stop offset="0" stop-color="#FF815B" stop-opacity="0.2"/><stop offset="1" stop-color="#FFE99B" stop-opacity="0.03"/></linearGradient></defs><rect x="5" y="5.7" width="54" height="54" rx="15" fill="#FF815B" opacity=".32"/><rect x="5" y="5" width="54" height="54" rx="15" fill="url(#v6-xiaosuanpan-compact-color)"/><rect x="5.5" y="5.5" width="53" height="53" rx="14.5" fill="url(#v6-xiaosuanpan-compact-light)" stroke="url(#v6-xiaosuanpan-compact-edge)" stroke-width=".55"/><g transform="translate(16.0000 15.5000) scale(1.0000)" color="#fff" fill="currentColor"><path d="M7 3h18q4 0 4 4v21q0 4-4 4H7q-4 0-4-4V7q0-4 4-4ZM4 12h24M4 23h24" fill="none" stroke="currentColor" stroke-width="1.8500" stroke-linecap="round" stroke-linejoin="round"/><rect x="8" y="8.5" width="5" height="7" rx="2.5" fill="currentColor"/><rect x="15" y="8.5" width="5" height="7" rx="2.5" fill="currentColor"/><rect x="12" y="19.5" width="5" height="7" rx="2.5" fill="currentColor"/><rect x="19" y="19.5" width="5" height="7" rx="2.5" fill="currentColor"/></g></svg>