<svg xmlns="http://www.w3.org/2000/svg" viewBox="0 0 64 64" role="img" aria-label="小太阳"><defs><linearGradient id="v6-xiaotaiyang-compact-color" x1="0" y1="0" x2="1" y2="1"><stop offset="0" stop-color="#FFF0AD" stop-opacity="1"/><stop offset=".42" stop-color="#FFC84C" stop-opacity="1"/><stop offset="1" stop-color="#FF8F48" stop-opacity="1"/></linearGradient><linearGradient id="v6-xiaotaiyang-compact-edge" x1="0" y1="0" x2="1" y2="1"><stop offset="0" stop-color="#fff" stop-opacity="0.95"/><stop offset=".5" stop-color="#fff" stop-opacity="0.24"/><stop offset="1" stop-color="#FFF0AD" stop-opacity="0.7"/></linearGradient><linearGradient id="v6-xiaotaiyang-compact-glass" x1="0" y1="0" x2="1" y2="1"><stop offset="0" stop-color="#fff" stop-opacity="0.8"/><stop offset=".55" stop-color="#fff" stop-opacity="0.18"/><stop offset="1" stop-color="#FF8F48" stop-opacity="0.14"/></linearGradient><linearGradient id="v6-xiaotaiyang-compact-light" x1="0" y1="0" x2=".85" y2="1"><stop offset="0" stop-color="#fff" stop-opacity="0.5"/><stop offset=".65" stop-color="#fff" stop-opacity="0.025"/></linearGradient><linearGradient id="v6-xiaotaiyang-compact-foot" x1="0" y1="1" x2="1" y2="0"><stop offset="0" stop-color="#FF8F48" stop-opacity="0.2"/><stop offset="1" stop-color="#FFF0AD" stop-opacity="0.03"/></linearGradient></defs><rect x="5" y="5.7" width="54" height="54" rx="15" fill="#FF8F48" opacity=".32"/><rect x="5" y="5" width="54" height="54" rx="15" fill="url(#v6-xiaotaiyang-compact-color)"/><rect x="5.5" y="5.5" width="53" height="53" rx="14.5" fill="url(#v6-xiaotaiyang-compact-light)" stroke="url(#v6-xiaotaiyang-compact-edge)" stroke-width=".55"/><g transform="translate(17.5000 18.5000) scale(0.9063)" color="#fff" fill="currentColor"><path d="M16 3V0M16 32v-3M3 16H0M32 16h-3M7 7 5 5M27 27l-2-2M25 7l2-2M5 27l2-2" fill="none" stroke="currentColor" stroke-width="2.0414" stroke-linecap="round" stroke-linejoin="round"/><circle cx="16" cy="16" r="7.5" fill="none" stroke="currentColor" stroke-width="2.0414"/><path d="M12 16a4 4 0 0 1 8 0Z" fill="currentColor" fill-rule="evenodd"/></g></svg>